<svg xmlns="http://www.w3.org/2000/svg" version="1.1" xmlns:xlink="http://www.w3.org/1999/xlink" xmlns:svgjs="http://svgjs.com/svgjs" width="1440" height="560" preserveAspectRatio="none" viewBox="0 0 1440 560"><g mask="url(&quot;#SvgjsMask1055&quot;)" fill="none"><path d="M52.16,133.43C81.507,135.607,110.146,119.614,124.411,93.874C138.296,68.819,133.346,38.352,118.391,13.921C104.141,-9.358,79.453,-24.412,52.16,-24.159C25.289,-23.91,0.309,-8.769,-11.978,15.13C-23.371,37.291,-15.518,62.471,-3.641,84.377C9.01,107.711,25.69,131.467,52.16,133.43" fill="rgba(106, 105, 220, 1)" class="triangle-float2"></path><path d="M130.536,255.341C175.872,253.449,219.109,234.063,242.34,195.086C266.126,155.178,264.636,106.657,243.95,65.057C220.435,17.768,183.321,-28.04,130.536,-29.756C75.583,-31.542,30.092,9.071,3.59,57.244C-21.883,103.547,-27.204,160.651,1.309,205.146C28.032,246.847,81.05,257.406,130.536,255.341" fill="rgba(106, 105, 220, 1)" class="triangle-float2"></path><path d="M74.462,171.523C110.822,172.34,148.857,159.395,166.219,127.438C183.014,96.524,170.103,59.834,151.291,30.105C134.018,2.808,106.707,-15.633,74.462,-17.567C38.171,-19.744,-1.437,-11.332,-20.184,19.818C-39.363,51.686,-30.106,91.912,-10.419,123.468C8.027,153.034,39.623,170.74,74.462,171.523" fill="rgba(106, 105, 220, 1)" class="triangle-float3"></path><path d="M1420.385,201.988C1460.311,202.001,1498.359,183.499,1518.926,149.278C1540.12,114.015,1541.486,69.971,1521.262,34.143C1500.699,-2.285,1462.204,-24.299,1420.385,-25.296C1376.69,-26.337,1332.292,-8.941,1310.82,29.128C1289.653,66.656,1298.892,112.819,1321.958,149.211C1343.319,182.913,1380.484,201.975,1420.385,201.988" fill="rgba(106, 105, 220, 1)" class="triangle-float3"></path><path d="M1459.451,297.435C1518.163,298.903,1573.916,265.247,1600.392,212.823C1624.774,164.545,1607.886,108.066,1577.783,63.132C1551.339,23.659,1506.894,4.998,1459.451,2.444C1405.904,-0.439,1345.518,3.806,1316.781,49.081C1286.616,96.607,1302.168,157.259,1330.208,206.069C1358.375,255.101,1402.922,296.022,1459.451,297.435" fill="rgba(106, 105, 220, 1)" class="triangle-float3"></path><path d="M1423.917,207.661C1465.155,207.134,1506.603,191.274,1526.802,155.318C1546.659,119.971,1537.504,77.149,1516.823,42.277C1496.624,8.217,1463.452,-15.913,1423.917,-18.17C1379.935,-20.681,1333.575,-7.096,1310.622,30.506C1286.864,69.426,1291.808,119.592,1316.375,158.006C1339.175,193.658,1381.601,208.202,1423.917,207.661" fill="rgba(106, 105, 220, 1)" class="triangle-float2"></path><path d="M147.778,735.173C206.135,738.126,272.883,735.444,303.7,685.799C335.581,634.44,316.533,567.97,282.642,517.914C252.877,473.951,200.87,455.454,147.778,455.502C94.786,455.55,40.802,472.839,13.334,518.156C-15.033,564.956,-11.839,624.77,16.982,671.292C44.369,715.5,95.84,732.545,147.778,735.173" fill="rgba(106, 105, 220, 1)" class="triangle-float3"></path><path d="M34.961,553.199C59.757,553.924,83.348,539.486,94.373,517.263C104.437,496.977,95.313,474.264,83.794,454.768C72.542,435.724,57.081,416.583,34.961,416.705C12.981,416.826,-2.326,436.058,-12.948,455.301C-23.124,473.736,-27.978,495.041,-18.722,513.955C-8.279,535.294,11.214,552.505,34.961,553.199" fill="rgba(106, 105, 220, 1)" class="triangle-float2"></path><path d="M119.701,719.865C170.531,718.791,207.694,677.194,232.112,632.601C255.374,590.118,263.868,540.338,241.538,497.357C217.429,450.951,171.986,417.241,119.701,416.232C65.784,415.192,15.3,445.173,-10.563,492.493C-35.466,538.057,-27.065,592.478,-1.253,637.533C24.732,682.89,67.44,720.969,119.701,719.865" fill="rgba(106, 105, 220, 1)" class="triangle-float3"></path><path d="M1440.914,706.003C1489.019,705.36,1523.835,664.263,1545.674,621.397C1565.289,582.897,1567.089,537.959,1545.634,500.453C1524.028,462.684,1484.42,437.522,1440.914,438.268C1398.572,438.994,1363.754,467.468,1342.236,503.942C1320.302,541.122,1312.242,585.476,1331.185,624.266C1352.636,668.191,1392.035,706.657,1440.914,706.003" fill="rgba(106, 105, 220, 1)" class="triangle-float3"></path><path d="M1466.517,748.232C1520.377,748.658,1560.242,702.75,1584.878,654.852C1607.207,611.44,1606.513,561.947,1584.829,518.209C1560.03,468.187,1522.31,418.199,1466.517,416.111C1408.15,413.927,1357.34,456.21,1331.803,508.74C1309.062,555.518,1325.853,607.674,1351.353,653.007C1377.527,699.539,1413.131,747.81,1466.517,748.232" fill="rgba(106, 105, 220, 1)" class="triangle-float1"></path><path d="M1390.887,595.312C1424.126,596.142,1459.405,588.799,1477.308,560.782C1496.401,530.901,1496.645,490.625,1476.371,461.532C1458.192,435.445,1422.657,435.481,1390.887,436.77C1362.128,437.937,1332.5,444.002,1316.626,468.012C1299.135,494.468,1295.651,529.249,1311.632,556.644C1327.507,583.857,1359.392,594.525,1390.887,595.312" fill="rgba(106, 105, 220, 1)" class="triangle-float2"></path></g><defs><mask id="SvgjsMask1055"><rect width="1440" height="560" fill="#ffffff"></rect></mask><style>
            @keyframes float1 {
                0%{transform: translate(0, 0)}
                50%{transform: translate(-10px, 0)}
                100%{transform: translate(0, 0)}
            }

            .triangle-float1 {
                animation: float1 5s infinite;
            }

            @keyframes float2 {
                0%{transform: translate(0, 0)}
                50%{transform: translate(-5px, -5px)}
                100%{transform: translate(0, 0)}
            }

            .triangle-float2 {
                animation: float2 4s infinite;
            }

            @keyframes float3 {
                0%{transform: translate(0, 0)}
                50%{transform: translate(0, -10px)}
                100%{transform: translate(0, 0)}
            }

            .triangle-float3 {
                animation: float3 6s infinite;
            }
        </style></defs></svg>