<svg xmlns="http://www.w3.org/2000/svg" version="1.1" xmlns:xlink="http://www.w3.org/1999/xlink" xmlns:svgjs="http://svgjs.com/svgjs" width="1440" height="560" preserveAspectRatio="none" viewBox="0 0 1440 560"><g mask="url(&quot;#SvgjsMask1045&quot;)" fill="none"><rect width="1440" height="560" x="0" y="0" fill="rgba(255, 255, 255, 1)"></rect><path d="M1512 560L0 560 L0 409.9Q59.61 349.51, 120 409.12Q188.81 357.94, 240 426.75Q273.43 340.18, 360 373.61Q411.01 352.63, 432 403.64Q519.25 370.88, 552 458.13Q604.94 391.07, 672 444.02Q704.11 356.13, 792 388.23Q871.43 347.67, 912 427.1Q958.55 401.65, 984 448.2Q988.35 380.54, 1056 384.89Q1097.01 353.9, 1128 394.92Q1169.08 364, 1200 405.07Q1281.36 366.42, 1320 447.78Q1349.12 356.89, 1440 386.01Q1483.24 357.25, 1512 400.48z" fill="rgba(106, 105, 220, 1)"></path><path d="M1560 560L0 560 L0 460.63Q55.69 444.31, 72 500Q106.71 414.71, 192 449.42Q243.63 429.05, 264 480.68Q294.66 439.34, 336 470Q377.92 391.92, 456 433.84Q501.57 407.41, 528 452.99Q619.26 424.25, 648 515.51Q690.83 438.34, 768 481.17Q821.86 415.03, 888 468.89Q912.92 421.81, 960 446.74Q1048.68 415.42, 1080 504.1Q1132.19 436.29, 1200 488.48Q1242.01 410.49, 1320 452.49Q1404.72 417.21, 1440 501.93Q1468.4 410.33, 1560 438.73z" fill="rgba(125, 124, 224, 1)"></path><path d="M1560 560L0 560 L0 497.33Q70.03 447.36, 120 517.39Q201.71 479.1, 240 560.81Q292.31 493.12, 360 545.42Q387.02 500.44, 432 527.47Q493.4 516.88, 504 578.28Q558.94 513.22, 624 568.16Q677.63 501.78, 744 555.41Q774.63 514.04, 816 544.67Q856.51 465.18, 936 505.69Q1032.7 482.39, 1056 579.1Q1068.43 519.53, 1128 531.96Q1197.88 481.84, 1248 551.72Q1284.92 468.64, 1368 505.56Q1413.74 479.3, 1440 525.04Q1522.63 487.67, 1560 570.31z" fill="rgba(143, 143, 229, 1)"></path></g><defs><mask id="SvgjsMask1045"><rect width="1440" height="560" fill="#ffffff"></rect></mask></defs></svg>