<?xml version="1.0" encoding="UTF-8"?>
<svg xmlns="http://www.w3.org/2000/svg" xmlns:xlink="http://www.w3.org/1999/xlink" width="826px" height="541px" viewBox="0 0 826 541" version="1.1">
<g id="surface1">
<path style=" stroke:none;fill-rule:nonzero;fill:rgb(94.509804%,94.509804%,94.509804%);fill-opacity:1;" d="M 32.792969 518.265625 C 55.335938 537.734375 84.554688 538.710938 112.800781 536.320312 C 116.742188 535.984375 120.660156 535.59375 124.539062 535.171875 C 124.5625 535.164062 124.59375 535.167969 124.617188 535.160156 C 124.804688 535.140625 124.988281 535.117188 125.167969 535.105469 C 125.96875 535.015625 126.769531 534.925781 127.5625 534.835938 L 127.375 535.265625 L 126.789062 536.59375 C 127 536.148438 127.210938 535.710938 127.421875 535.269531 C 127.484375 535.132812 127.554688 535 127.617188 534.867188 C 134.933594 519.609375 142.1875 503.789062 144.039062 486.363281 C 145.953125 468.277344 140.574219 447.800781 127.292969 438.910156 C 125.550781 437.746094 123.707031 436.820312 121.796875 436.148438 C 121 435.859375 120.195312 435.625 119.382812 435.417969 C 109.238281 432.71875 98.671875 436.792969 91.746094 446.074219 C 84.816406 455.351562 82.613281 468.390625 85.976562 480.171875 C 74.714844 466.335938 76.816406 443.886719 80.699219 425.125 C 84.589844 406.363281 89.300781 385.488281 81.386719 368.636719 C 76.988281 359.253906 69.25 353.4375 60.566406 351.09375 C 60.300781 351.023438 60.035156 350.953125 59.765625 350.894531 C 49.421875 348.382812 38.664062 350.640625 29.648438 357.21875 C 13.042969 369.757812 4.515625 393.535156 1.746094 416.828125 C -2.710938 454.304688 7.15625 496.132812 32.792969 518.265625 Z M 32.792969 518.265625 "/>
<path style=" stroke:none;fill-rule:nonzero;fill:rgb(100%,100%,100%);fill-opacity:1;" d="M 40.070312 458.1875 C 40.726562 466.453125 42.382812 474.5625 44.988281 482.257812 C 47.390625 489.066406 50.628906 495.40625 54.597656 501.066406 C 62.699219 512.746094 73.414062 521.53125 85.050781 527.382812 C 93.949219 531.75 103.273438 534.753906 112.800781 536.320312 C 116.742188 535.984375 120.660156 535.59375 124.539062 535.171875 C 124.5625 535.164062 124.59375 535.167969 124.617188 535.160156 C 124.804688 535.140625 124.988281 535.117188 125.167969 535.105469 C 125.96875 535.015625 126.769531 534.925781 127.5625 534.835938 L 127.375 535.265625 L 126.789062 536.59375 C 127 536.148438 127.210938 535.710938 127.421875 535.269531 C 127.484375 535.132812 127.554688 535 127.613281 534.867188 C 113.125 517.5625 106.535156 492.910156 109.9375 468.734375 C 111.691406 456.90625 115.753906 445.738281 121.792969 436.148438 C 121 435.859375 120.195312 435.625 119.382812 435.417969 C 117.085938 439.179688 115.074219 443.175781 113.363281 447.363281 C 107.234375 462.289062 105.28125 479.1875 107.789062 495.550781 C 110.121094 510.359375 115.925781 524.0625 124.53125 535.050781 C 123.777344 534.988281 123.015625 534.914062 122.273438 534.832031 C 108.175781 533.402344 94.105469 529.769531 81.316406 522.328125 C 70.386719 516.121094 60.898438 506.792969 53.6875 495.15625 C 45.941406 482.355469 42.527344 466.957031 41.941406 451.308594 C 41.320312 434.554688 43.136719 417.507812 46.324219 401.214844 C 49.582031 384.511719 54.535156 368.347656 61.066406 353.085938 C 61.371094 352.367188 61.148438 351.492188 60.566406 351.09375 C 60.332031 350.902344 60.042969 350.832031 59.765625 350.894531 C 59.492188 350.980469 59.265625 351.214844 59.148438 351.527344 C 58.34375 353.414062 57.554688 355.300781 56.792969 357.207031 C 50.453125 373.097656 45.789062 389.867188 42.902344 407.136719 C 40.101562 423.796875 38.605469 441.222656 40.070312 458.1875 Z M 40.070312 458.1875 "/>
<path style=" stroke:none;fill-rule:nonzero;fill:rgb(79.607843%,79.607843%,79.607843%);fill-opacity:1;" d="M 325.960938 541 L 0.851562 541 C 0.382812 541 0 540.542969 0 539.976562 C 0 539.414062 0.382812 538.953125 0.851562 538.953125 L 325.960938 538.953125 C 326.433594 538.953125 326.816406 539.414062 326.816406 539.976562 C 326.816406 540.542969 326.433594 541 325.960938 541 Z M 325.960938 541 "/>
<path style=" stroke:none;fill-rule:nonzero;fill:rgb(100%,71.764706%,71.764706%);fill-opacity:1;" d="M 228.371094 266.375 L 213.671875 180.046875 L 207.214844 116.28125 L 192.90625 127.375 L 194.882812 197.640625 L 217.71875 270.445312 C 216.214844 273.871094 216.589844 278.046875 218.667969 281.011719 C 220.742188 283.976562 224.105469 285.144531 227.179688 283.96875 C 230.257812 282.792969 232.4375 279.507812 232.699219 275.648438 C 232.957031 271.792969 231.25 268.128906 228.371094 266.375 Z M 228.371094 266.375 "/>
<path style=" stroke:none;fill-rule:nonzero;fill:rgb(100%,71.764706%,71.764706%);fill-opacity:1;" d="M 90.878906 273.050781 L 94.949219 185.078125 L 93.601562 120.863281 L 112.515625 129.347656 L 115.671875 199.210938 L 101.914062 275.222656 C 103.816406 278.347656 103.949219 282.542969 102.257812 285.839844 C 100.5625 289.132812 97.378906 290.875 94.191406 290.25 C 91.003906 289.625 88.449219 286.75 87.722656 282.980469 C 87 279.210938 88.246094 275.289062 90.878906 273.050781 Z M 90.878906 273.050781 "/>
<path style=" stroke:none;fill-rule:nonzero;fill:rgb(100%,71.764706%,71.764706%);fill-opacity:1;" d="M 130.492188 528.824219 L 140.15625 528.824219 L 144.753906 484.148438 L 130.488281 484.152344 Z M 130.492188 528.824219 "/>
<path style=" stroke:none;fill-rule:nonzero;fill:rgb(18.431373%,18.039216%,25.490196%);fill-opacity:1;" d="M 128.027344 525.042969 L 147.058594 525.042969 C 153.757812 525.042969 159.1875 531.550781 159.1875 539.578125 L 159.1875 540.050781 L 128.027344 540.054688 Z M 128.027344 525.042969 "/>
<path style=" stroke:none;fill-rule:nonzero;fill:rgb(100%,71.764706%,71.764706%);fill-opacity:1;" d="M 167.097656 523.699219 L 176.644531 525.46875 L 186.890625 482.164062 L 172.792969 479.550781 Z M 167.097656 523.699219 "/>
<path style=" stroke:none;fill-rule:nonzero;fill:rgb(18.431373%,18.039216%,25.490196%);fill-opacity:1;" d="M 165.140625 519.511719 L 183.949219 523 L 183.953125 523 C 190.570312 524.226562 195.105469 531.652344 194.082031 539.585938 L 194.023438 540.054688 L 163.226562 534.34375 Z M 165.140625 519.511719 "/>
<path style=" stroke:none;fill-rule:nonzero;fill:rgb(18.431373%,18.039216%,25.490196%);fill-opacity:1;" d="M 127.652344 515.488281 L 127.601562 515.164062 L 92.617188 288.460938 C 89.839844 270.257812 92.054688 251.472656 98.929688 234.90625 L 120.105469 184.148438 L 183.292969 194.410156 L 190.75 259.03125 L 217.324219 382.308594 L 217.296875 382.40625 L 183.25 512.023438 L 160.9375 513.78125 L 180.703125 398.082031 L 144.507812 299.558594 L 147.0625 513.722656 Z M 127.652344 515.488281 "/>
<path style=" stroke:none;fill-rule:nonzero;fill:rgb(41.568627%,41.176471%,86.27451%);fill-opacity:1;" d="M 184.761719 202.679688 L 184.347656 201.894531 C 184.269531 201.753906 176.597656 187.894531 155.710938 197.148438 C 134.390625 206.597656 117.867188 188.347656 117.703125 188.164062 L 117.621094 188.070312 L 112.792969 136.492188 L 107.09375 94.621094 L 125.238281 90.804688 L 134.160156 84.390625 L 169.632812 83.632812 L 178.964844 92.433594 L 194.292969 94.433594 L 195.695312 132.585938 L 195.6875 132.628906 Z M 184.761719 202.679688 "/>
<path style=" stroke:none;fill-rule:nonzero;fill:rgb(41.568627%,41.176471%,86.27451%);fill-opacity:1;" d="M 189.847656 136.277344 L 189.847656 103.609375 L 194.15625 94.179688 L 194.332031 94.175781 C 197.722656 94.328125 200.929688 96.074219 203.257812 99.035156 C 207.59375 104.3125 209.554688 113.109375 209.09375 125.175781 L 209.085938 125.394531 Z M 189.847656 136.277344 "/>
<path style=" stroke:none;fill-rule:nonzero;fill:rgb(41.568627%,41.176471%,86.27451%);fill-opacity:1;" d="M 114.730469 132.726562 L 92.761719 129.566406 L 92.746094 129.265625 C 91.996094 116.136719 93.910156 106.390625 98.429688 100.300781 C 102.53125 94.773438 107.230469 94.4375 107.429688 94.425781 L 107.558594 94.417969 L 113.503906 100.898438 Z M 114.730469 132.726562 "/>
<path style=" stroke:none;fill-rule:nonzero;fill:rgb(18.431373%,18.039216%,25.490196%);fill-opacity:1;" d="M 178.316406 70.46875 L 120.515625 70.46875 C 118.039062 70.464844 116.03125 68.0625 116.03125 65.09375 L 116.03125 40.011719 C 116.03125 17.914062 130.976562 0 149.414062 0 C 167.851562 0 182.800781 17.914062 182.800781 40.011719 L 182.800781 65.09375 C 182.796875 68.0625 180.792969 70.464844 178.316406 70.46875 Z M 178.316406 70.46875 "/>
<path style=" stroke:none;fill-rule:nonzero;fill:rgb(100%,71.764706%,71.764706%);fill-opacity:1;" d="M 162.496094 15.144531 C 174.359375 22.917969 178.71875 40.742188 172.234375 54.957031 C 165.75 69.171875 150.878906 74.398438 139.015625 66.628906 C 127.15625 58.855469 122.796875 41.03125 129.28125 26.816406 C 135.765625 12.597656 150.636719 7.375 162.496094 15.144531 Z M 162.496094 15.144531 "/>
<path style=" stroke:none;fill-rule:nonzero;fill:rgb(18.431373%,18.039216%,25.490196%);fill-opacity:1;" d="M 174.023438 41.804688 L 141.707031 41.804688 C 140.453125 41.800781 139.390625 40.679688 139.234375 39.1875 L 138.816406 35.175781 C 138.734375 34.382812 138.222656 33.753906 137.566406 33.628906 C 136.90625 33.503906 136.261719 33.917969 135.980469 34.640625 L 133.859375 40.082031 C 133.449219 41.128906 132.570312 41.800781 131.601562 41.804688 L 126.695312 41.804688 C 125.992188 41.804688 125.320312 41.449219 124.851562 40.824219 C 124.378906 40.203125 124.148438 39.371094 124.214844 38.53125 L 126.148438 14.304688 C 126.234375 13.25 126.773438 12.324219 127.574219 11.871094 C 142.371094 3.589844 157.378906 3.601562 172.179688 11.902344 C 172.941406 12.332031 173.472656 13.195312 173.589844 14.195312 L 176.488281 38.394531 C 176.589844 39.25 176.378906 40.117188 175.90625 40.773438 C 175.433594 41.429688 174.746094 41.804688 174.023438 41.804688 Z M 174.023438 41.804688 "/>
<path style=" stroke:none;fill-rule:nonzero;fill:rgb(24.705882%,23.921569%,33.72549%);fill-opacity:1;" d="M 228.445312 271.890625 L 227.238281 270.445312 L 279.683594 207.585938 L 381.320312 207.585938 L 432.601562 144.859375 L 532.921875 144.859375 L 583.539062 83.726562 L 819.148438 83.726562 L 819.148438 85.773438 L 584.25 85.773438 L 533.632812 146.90625 L 433.316406 146.90625 L 382.039062 209.632812 L 280.394531 209.632812 Z M 228.445312 271.890625 "/>
<path style=" stroke:none;fill-rule:nonzero;fill:rgb(100%,100%,100%);fill-opacity:1;" d="M 465.882812 146.242188 C 465.882812 167.140625 451.746094 184.082031 434.308594 184.082031 C 416.871094 184.082031 402.738281 167.140625 402.738281 146.242188 C 402.738281 125.347656 416.871094 108.40625 434.308594 108.40625 C 451.746094 108.40625 465.882812 125.347656 465.882812 146.242188 Z M 465.882812 146.242188 "/>
<path style=" stroke:none;fill-rule:nonzero;fill:rgb(79.607843%,79.607843%,79.607843%);fill-opacity:1;" d="M 593.023438 84.882812 C 593.023438 90.53125 589.203125 95.109375 584.492188 95.109375 C 579.777344 95.109375 575.957031 90.53125 575.957031 84.882812 C 575.957031 79.234375 579.777344 74.65625 584.492188 74.65625 C 589.203125 74.65625 593.023438 79.234375 593.023438 84.882812 Z M 593.023438 84.882812 "/>
<path style=" stroke:none;fill-rule:nonzero;fill:rgb(79.607843%,79.607843%,79.607843%);fill-opacity:1;" d="M 825.976562 84.882812 C 825.976562 90.53125 822.15625 95.109375 817.445312 95.109375 C 812.730469 95.109375 808.910156 90.53125 808.910156 84.882812 C 808.910156 79.234375 812.730469 74.65625 817.445312 74.65625 C 822.15625 74.65625 825.976562 79.234375 825.976562 84.882812 Z M 825.976562 84.882812 "/>
<path style=" stroke:none;fill-rule:nonzero;fill:rgb(79.607843%,79.607843%,79.607843%);fill-opacity:1;" d="M 709.925781 84.882812 C 709.925781 90.53125 706.105469 95.109375 701.394531 95.109375 C 696.679688 95.109375 692.859375 90.53125 692.859375 84.882812 C 692.859375 79.234375 696.679688 74.65625 701.394531 74.65625 C 706.105469 74.65625 709.925781 79.234375 709.925781 84.882812 Z M 709.925781 84.882812 "/>
<path style=" stroke:none;fill-rule:nonzero;fill:rgb(24.705882%,23.921569%,33.72549%);fill-opacity:1;" d="M 434.308594 185.105469 C 416.402344 185.105469 401.882812 167.707031 401.882812 146.242188 C 401.882812 124.78125 416.402344 107.382812 434.308594 107.382812 C 452.21875 107.382812 466.734375 124.78125 466.734375 146.242188 C 466.714844 167.695312 452.207031 185.082031 434.308594 185.105469 Z M 434.308594 109.425781 C 417.34375 109.425781 403.589844 125.910156 403.589844 146.242188 C 403.589844 166.578125 417.34375 183.058594 434.308594 183.058594 C 451.273438 183.058594 465.027344 166.578125 465.027344 146.242188 C 465.007812 125.921875 451.265625 109.449219 434.308594 109.425781 Z M 434.308594 109.425781 "/>
<path style=" stroke:none;fill-rule:nonzero;fill:rgb(41.568627%,41.176471%,86.27451%);fill-opacity:1;" d="M 456.867188 146.242188 C 456.867188 161.175781 446.769531 173.28125 434.308594 173.28125 C 421.851562 173.28125 411.75 161.175781 411.75 146.242188 C 411.75 131.3125 421.851562 119.207031 434.308594 119.207031 C 446.769531 119.207031 456.867188 131.3125 456.867188 146.242188 Z M 456.867188 146.242188 "/>
<path style=" stroke:none;fill-rule:nonzero;fill:rgb(100%,100%,100%);fill-opacity:1;" d="M 432.160156 157.65625 L 425.40625 147.253906 L 429.332031 143.59375 L 432.53125 148.519531 L 443.332031 134.855469 L 446.941406 138.957031 Z M 432.160156 157.65625 "/>
<path style=" stroke:none;fill-rule:nonzero;fill:rgb(100%,100%,100%);fill-opacity:1;" d="M 310.578125 208.628906 C 310.578125 229.527344 296.445312 246.46875 279.007812 246.46875 C 261.570312 246.46875 247.433594 229.527344 247.433594 208.628906 C 247.433594 187.730469 261.570312 170.789062 279.007812 170.789062 C 296.445312 170.789062 310.578125 187.730469 310.578125 208.628906 Z M 310.578125 208.628906 "/>
<path style=" stroke:none;fill-rule:nonzero;fill:rgb(24.705882%,23.921569%,33.72549%);fill-opacity:1;" d="M 279.007812 247.488281 C 261.097656 247.488281 246.582031 230.089844 246.582031 208.628906 C 246.582031 187.164062 261.097656 169.765625 279.007812 169.765625 C 296.914062 169.765625 311.433594 187.164062 311.433594 208.628906 C 311.414062 230.082031 296.90625 247.464844 279.007812 247.488281 Z M 279.007812 171.8125 C 262.042969 171.8125 248.289062 188.292969 248.289062 208.628906 C 248.289062 228.960938 262.042969 245.445312 279.007812 245.445312 C 295.972656 245.445312 309.726562 228.960938 309.726562 208.628906 C 309.707031 188.304688 295.964844 171.832031 279.007812 171.8125 Z M 279.007812 171.8125 "/>
<path style=" stroke:none;fill-rule:nonzero;fill:rgb(41.568627%,41.176471%,86.27451%);fill-opacity:1;" d="M 301.566406 208.628906 C 301.566406 223.558594 291.464844 235.664062 279.007812 235.664062 C 266.550781 235.664062 256.449219 223.558594 256.449219 208.628906 C 256.449219 193.695312 266.550781 181.589844 279.007812 181.589844 C 291.464844 181.589844 301.566406 193.695312 301.566406 208.628906 Z M 301.566406 208.628906 "/>
<path style=" stroke:none;fill-rule:nonzero;fill:rgb(100%,100%,100%);fill-opacity:1;" d="M 276.859375 220.039062 L 270.105469 209.636719 L 274.03125 205.976562 L 277.230469 210.902344 L 288.027344 197.238281 L 291.640625 201.339844 Z M 276.859375 220.039062 "/>
</g>
</svg>
