<?xml version="1.0" encoding="UTF-8"?>
<svg xmlns="http://www.w3.org/2000/svg" xmlns:xlink="http://www.w3.org/1999/xlink" width="826px" height="541px" viewBox="0 0 826 541" version="1.1">
<g id="surface1">
<path style=" stroke:none;fill-rule:nonzero;fill:rgb(90.196078%,90.196078%,90.196078%);fill-opacity:1;" d="M 525.851562 463.253906 L 70.902344 463.253906 C 65.355469 463.246094 60.863281 457.933594 60.855469 451.375 L 60.855469 138.050781 C 60.863281 131.492188 65.355469 126.175781 70.902344 126.167969 L 525.851562 126.167969 C 531.394531 126.175781 535.890625 131.492188 535.894531 138.050781 L 535.894531 451.375 C 535.890625 457.933594 531.394531 463.246094 525.851562 463.253906 Z M 525.851562 463.253906 "/>
<path style=" stroke:none;fill-rule:nonzero;fill:rgb(80%,80%,80%);fill-opacity:1;" d="M 554.210938 507.105469 L 42.539062 507.105469 L 42.539062 106.597656 C 42.546875 99.265625 47.570312 93.328125 53.765625 93.316406 L 542.984375 93.316406 C 549.183594 93.328125 554.203125 99.265625 554.210938 106.597656 Z M 44.902344 504.308594 L 551.847656 504.308594 L 551.847656 106.597656 C 551.84375 100.8125 547.878906 96.121094 542.984375 96.113281 L 53.765625 96.113281 C 48.875 96.121094 44.910156 100.8125 44.902344 106.597656 Z M 44.902344 504.308594 "/>
<path style=" stroke:none;fill-rule:nonzero;fill:rgb(90.196078%,90.196078%,90.196078%);fill-opacity:1;" d="M 303.101562 110.792969 C 303.101562 113.878906 300.988281 116.382812 298.375 116.382812 C 295.765625 116.382812 293.648438 113.878906 293.648438 110.792969 C 293.648438 107.703125 295.765625 105.199219 298.375 105.199219 C 300.988281 105.199219 303.101562 107.703125 303.101562 110.792969 Z M 303.101562 110.792969 "/>
<path style=" stroke:none;fill-rule:nonzero;fill:rgb(100%,100%,100%);fill-opacity:1;" d="M 412.410156 396.761719 L 184.34375 396.761719 C 178.796875 396.753906 174.304688 391.4375 174.300781 384.878906 L 174.300781 204.546875 C 174.304688 197.988281 178.796875 192.671875 184.34375 192.664062 L 412.410156 192.664062 C 417.953125 192.671875 422.445312 197.988281 422.453125 204.546875 L 422.453125 384.878906 C 422.445312 391.4375 417.953125 396.753906 412.410156 396.761719 Z M 412.410156 396.761719 "/>
<path style=" stroke:none;fill-rule:nonzero;fill:rgb(80%,80%,80%);fill-opacity:1;" d="M 221.863281 269.550781 C 216.640625 269.550781 212.410156 264.542969 212.410156 258.367188 C 212.410156 252.191406 216.640625 247.183594 221.863281 247.183594 C 227.082031 247.183594 231.316406 252.191406 231.316406 258.367188 C 231.308594 264.539062 227.082031 269.542969 221.863281 269.550781 Z M 221.863281 269.550781 "/>
<path style=" stroke:none;fill-rule:nonzero;fill:rgb(41.568627%,41.176471%,86.27451%);fill-opacity:1;" d="M 221.863281 305.894531 C 216.640625 305.894531 212.410156 300.890625 212.410156 294.710938 C 212.410156 288.535156 216.640625 283.527344 221.863281 283.527344 C 227.082031 283.527344 231.316406 288.535156 231.316406 294.710938 C 231.308594 300.886719 227.082031 305.890625 221.863281 305.894531 Z M 221.863281 305.894531 "/>
<path style=" stroke:none;fill-rule:nonzero;fill:rgb(41.568627%,41.176471%,86.27451%);fill-opacity:1;" d="M 221.863281 342.242188 C 216.640625 342.242188 212.410156 337.234375 212.410156 331.058594 C 212.410156 324.882812 216.640625 319.875 221.863281 319.875 C 227.082031 319.875 231.316406 324.882812 231.316406 331.058594 C 231.308594 337.230469 227.082031 342.234375 221.863281 342.242188 Z M 221.863281 342.242188 "/>
<path style=" stroke:none;fill-rule:nonzero;fill:rgb(80%,80%,80%);fill-opacity:1;" d="M 266.765625 249.28125 C 262.523438 249.28125 259.085938 253.347656 259.085938 258.367188 C 259.085938 263.382812 262.523438 267.453125 266.765625 267.453125 L 376.664062 267.453125 C 380.90625 267.453125 384.34375 263.382812 384.34375 258.367188 C 384.34375 253.347656 380.90625 249.28125 376.664062 249.28125 Z M 266.765625 249.28125 "/>
<path style=" stroke:none;fill-rule:nonzero;fill:rgb(41.568627%,41.176471%,86.27451%);fill-opacity:1;" d="M 266.765625 285.625 C 262.523438 285.625 259.085938 289.695312 259.085938 294.710938 C 259.085938 299.730469 262.523438 303.800781 266.765625 303.800781 L 376.664062 303.800781 C 380.90625 303.800781 384.34375 299.730469 384.34375 294.710938 C 384.34375 289.695312 380.90625 285.625 376.664062 285.625 Z M 266.765625 285.625 "/>
<path style=" stroke:none;fill-rule:nonzero;fill:rgb(41.568627%,41.176471%,86.27451%);fill-opacity:1;" d="M 266.765625 321.972656 C 262.523438 321.972656 259.085938 326.039062 259.085938 331.058594 C 259.085938 336.078125 262.523438 340.144531 266.765625 340.144531 L 376.664062 340.144531 C 380.90625 340.144531 384.34375 336.078125 384.34375 331.058594 C 384.34375 326.039062 380.90625 321.972656 376.664062 321.972656 Z M 266.765625 321.972656 "/>
<path style=" stroke:none;fill-rule:nonzero;fill:rgb(100%,72.156863%,72.156863%);fill-opacity:1;" d="M 783.800781 524.683594 L 769.3125 524.394531 L 763.359375 458.164062 L 784.738281 458.585938 Z M 783.800781 524.683594 "/>
<path style=" stroke:none;fill-rule:nonzero;fill:rgb(18.431373%,18.039216%,25.490196%);fill-opacity:1;" d="M 759.039062 519.292969 L 786.972656 519.847656 L 786.679688 540.65625 L 741.152344 539.75 C 741.316406 528.257812 749.324219 519.101562 759.039062 519.292969 Z M 759.039062 519.292969 "/>
<path style=" stroke:none;fill-rule:nonzero;fill:rgb(100%,72.156863%,72.156863%);fill-opacity:1;" d="M 640.050781 524.527344 L 626.621094 518.097656 L 641.199219 453.761719 L 661.015625 463.253906 Z M 640.050781 524.527344 "/>
<path style=" stroke:none;fill-rule:nonzero;fill:rgb(18.431373%,18.039216%,25.490196%);fill-opacity:1;" d="M 618.582031 508.964844 L 644.480469 521.367188 L 637.878906 540.65625 L 595.675781 520.445312 C 599.320312 509.792969 609.578125 504.652344 618.582031 508.964844 Z M 618.582031 508.964844 "/>
<path style=" stroke:none;fill-rule:nonzero;fill:rgb(18.431373%,18.039216%,25.490196%);fill-opacity:1;" d="M 688.46875 276.6875 L 645.929688 409.488281 L 628.203125 501.753906 L 647.109375 512.9375 L 733.371094 314.429688 L 765.277344 513.636719 L 784.183594 513.636719 C 784.183594 513.636719 792.832031 277.363281 780.234375 258.851562 Z M 688.46875 276.6875 "/>
<path style=" stroke:none;fill-rule:nonzero;fill:rgb(41.568627%,41.176471%,86.27451%);fill-opacity:1;" d="M 669.019531 382.707031 C 669.019531 404.457031 654.117188 422.089844 635.730469 422.089844 C 617.34375 422.089844 602.4375 404.457031 602.4375 382.707031 C 602.4375 360.957031 617.34375 343.324219 635.730469 343.324219 C 654.117188 343.324219 669.019531 360.957031 669.019531 382.707031 Z M 669.019531 382.707031 "/>
<path style=" stroke:none;fill-rule:nonzero;fill:rgb(100%,100%,100%);fill-opacity:1;" d="M 632.953125 400.121094 L 622.390625 384.046875 L 628.535156 378.394531 L 633.535156 386.003906 L 650.4375 364.898438 L 656.089844 371.234375 Z M 632.953125 400.121094 "/>
<path style=" stroke:none;fill-rule:nonzero;fill:rgb(18.431373%,18.039216%,25.490196%);fill-opacity:1;" d="M 748.144531 46.726562 C 748.144531 72.203125 730.683594 92.859375 709.148438 92.859375 C 687.613281 92.859375 670.152344 72.203125 670.152344 46.726562 C 670.152344 21.25 687.613281 0.59375 709.148438 0.59375 C 730.683594 0.59375 748.144531 21.25 748.144531 46.726562 Z M 748.144531 46.726562 "/>
<path style=" stroke:none;fill-rule:nonzero;fill:rgb(100%,72.156863%,72.156863%);fill-opacity:1;" d="M 654.726562 360.644531 C 658.089844 358.664062 660.539062 355.023438 661.414062 350.703125 C 662.292969 346.378906 661.503906 341.820312 659.265625 338.25 L 688.847656 144.582031 L 661.242188 144.152344 L 640.699219 335.664062 C 635.773438 340.621094 634.757812 349.152344 638.335938 355.523438 C 641.914062 361.898438 648.957031 364.097656 654.726562 360.644531 Z M 654.726562 360.644531 "/>
<path style=" stroke:none;fill-rule:nonzero;fill:rgb(100%,72.156863%,72.156863%);fill-opacity:1;" d="M 824.238281 322.816406 C 826.351562 319.011719 826.886719 314.277344 825.703125 309.945312 C 824.515625 305.613281 821.730469 302.152344 818.132812 300.535156 L 765.3125 148.746094 C 762.695312 141.226562 757.414062 135.453125 750.871094 132.957031 C 744.332031 130.460938 737.191406 131.496094 731.355469 135.789062 L 801.316406 310.195312 C 799.453125 317.398438 802.363281 325.125 808.136719 328.304688 C 813.910156 331.484375 820.78125 329.140625 824.238281 322.816406 Z M 824.238281 322.816406 "/>
<path style=" stroke:none;fill-rule:nonzero;fill:rgb(100%,72.156863%,72.156863%);fill-opacity:1;" d="M 738.945312 64.105469 C 738.945312 83.070312 725.949219 98.441406 709.921875 98.441406 C 693.890625 98.441406 680.898438 83.070312 680.898438 64.105469 C 680.898438 45.144531 693.890625 29.773438 709.921875 29.773438 C 725.949219 29.773438 738.945312 45.144531 738.945312 64.105469 Z M 738.945312 64.105469 "/>
<path style=" stroke:none;fill-rule:nonzero;fill:rgb(80%,80%,80%);fill-opacity:1;" d="M 674.628906 118.394531 C 691.367188 110.152344 720.269531 102.003906 752.359375 119.761719 C 759.957031 123.949219 765.679688 131.777344 768.089844 141.273438 L 781.820312 195.605469 L 764.097656 216.574219 L 780.640625 259.910156 C 780.640625 259.910156 717.421875 305.34375 689.058594 277.386719 L 671.925781 205.390625 L 649.472656 198.402344 L 657.132812 144.566406 C 658.773438 132.867188 665.382812 122.980469 674.628906 118.394531 Z M 674.628906 118.394531 "/>
<path style=" stroke:none;fill-rule:nonzero;fill:rgb(18.431373%,18.039216%,25.490196%);fill-opacity:1;" d="M 682.773438 38.714844 C 694.109375 46.902344 706.886719 51.882812 720.117188 53.273438 L 716.179688 47.691406 C 719.046875 48.945312 722.0625 49.652344 725.113281 49.792969 C 728.214844 49.898438 731.171875 48.257812 733.089844 45.375 C 734.65625 42.378906 734.882812 38.664062 733.699219 35.429688 C 732.5 32.25 730.632812 29.488281 728.277344 27.40625 C 719.792969 19.464844 708.507812 17.082031 698.226562 21.054688 C 694.75 22.28125 691.640625 24.640625 689.25 27.863281 C 686.863281 31.160156 686.035156 35.660156 687.046875 39.832031 "/>
<path style=" stroke:none;fill-rule:nonzero;fill:rgb(18.431373%,18.039216%,25.490196%);fill-opacity:1;" d="M 677.347656 8.164062 C 676.875 2.292969 670.792969 -1.320312 666.039062 0.453125 C 661.285156 2.226562 658.164062 7.890625 657.21875 13.679688 C 656.304688 18.605469 657.082031 23.761719 659.382812 28.007812 C 661.789062 32.246094 666.0625 34.4375 670.320312 33.613281 C 675.023438 32.429688 678.28125 26.996094 679.214844 21.417969 C 680.148438 15.835938 679.222656 10.082031 678.296875 4.503906 "/>
<path style=" stroke:none;fill-rule:nonzero;fill:rgb(18.431373%,18.039216%,25.490196%);fill-opacity:1;" d="M 757.703125 10.960938 C 757.230469 5.089844 751.148438 1.476562 746.394531 3.25 C 741.640625 5.023438 738.519531 10.6875 737.574219 16.476562 C 736.65625 21.402344 737.4375 26.558594 739.738281 30.804688 C 742.144531 35.042969 746.417969 37.234375 750.675781 36.410156 C 755.378906 35.226562 758.636719 29.792969 759.570312 24.210938 C 760.5 18.632812 759.578125 12.878906 758.652344 7.296875 "/>
<path style=" stroke:none;fill-rule:nonzero;fill:rgb(24.705882%,23.921569%,33.72549%);fill-opacity:1;" d="M 563.074219 488.933594 L 542.394531 488.933594 L 542.394531 484.738281 C 542.394531 481.652344 540.277344 479.148438 537.667969 479.148438 L 512.851562 479.148438 C 510.242188 479.148438 508.125 481.652344 508.125 484.738281 L 508.125 488.933594 L 504.582031 488.933594 L 504.582031 484.738281 C 504.582031 481.652344 502.464844 479.148438 499.855469 479.148438 L 475.039062 479.148438 C 472.429688 479.148438 470.3125 481.652344 470.3125 484.738281 L 470.3125 488.933594 L 466.765625 488.933594 L 466.765625 484.738281 C 466.765625 481.652344 464.652344 479.148438 462.039062 479.148438 L 437.222656 479.148438 C 434.613281 479.148438 432.496094 481.652344 432.496094 484.738281 L 432.496094 488.933594 L 428.953125 488.933594 L 428.953125 484.738281 C 428.953125 481.652344 426.835938 479.148438 424.226562 479.148438 L 399.410156 479.148438 C 396.800781 479.148438 394.683594 481.652344 394.683594 484.738281 L 394.683594 488.933594 L 391.140625 488.933594 L 391.140625 484.738281 C 391.140625 481.652344 389.023438 479.148438 386.410156 479.148438 L 361.597656 479.148438 C 358.984375 479.148438 356.871094 481.652344 356.871094 484.738281 L 356.871094 488.933594 L 353.324219 488.933594 L 353.324219 484.738281 C 353.324219 481.652344 351.207031 479.148438 348.597656 479.148438 L 323.78125 479.148438 C 321.171875 479.148438 319.054688 481.652344 319.054688 484.738281 L 319.054688 488.933594 L 315.511719 488.933594 L 315.511719 484.738281 C 315.511719 481.652344 313.394531 479.148438 310.785156 479.148438 L 285.96875 479.148438 C 283.359375 479.148438 281.242188 481.652344 281.242188 484.738281 L 281.242188 488.933594 L 277.695312 488.933594 L 277.695312 484.738281 C 277.695312 481.652344 275.582031 479.148438 272.96875 479.148438 L 248.15625 479.148438 C 245.542969 479.148438 243.429688 481.652344 243.429688 484.738281 L 243.429688 488.933594 L 239.882812 488.933594 L 239.882812 484.738281 C 239.882812 481.652344 237.765625 479.148438 235.15625 479.148438 L 210.339844 479.148438 C 207.730469 479.148438 205.613281 481.652344 205.613281 484.738281 L 205.613281 488.933594 L 202.070312 488.933594 L 202.070312 484.738281 C 202.070312 481.652344 199.953125 479.148438 197.34375 479.148438 L 172.527344 479.148438 C 169.914062 479.148438 167.800781 481.652344 167.800781 484.738281 L 167.800781 488.933594 L 164.253906 488.933594 L 164.253906 484.738281 C 164.253906 481.652344 162.136719 479.148438 159.527344 479.148438 L 134.710938 479.148438 C 132.101562 479.148438 129.984375 481.652344 129.984375 484.738281 L 129.984375 488.933594 L 126.441406 488.933594 L 126.441406 484.738281 C 126.441406 481.652344 124.324219 479.148438 121.714844 479.148438 L 96.898438 479.148438 C 94.289062 479.148438 92.171875 481.652344 92.171875 484.738281 L 92.171875 488.933594 L 88.625 488.933594 L 88.625 484.738281 C 88.625 481.652344 86.511719 479.148438 83.898438 479.148438 L 59.085938 479.148438 C 56.472656 479.148438 54.359375 481.652344 54.359375 484.738281 L 54.359375 488.933594 L 33.679688 488.933594 C 15.078125 488.933594 0 506.769531 0 528.773438 C 0 535.335938 4.496094 540.65625 10.042969 540.65625 L 586.707031 540.65625 C 592.253906 540.65625 596.753906 535.335938 596.753906 528.773438 C 596.753906 506.769531 581.675781 488.933594 563.074219 488.933594 Z M 563.074219 488.933594 "/>
</g>
</svg>
