<?xml version="1.0" encoding="UTF-8"?>
<svg xmlns="http://www.w3.org/2000/svg" xmlns:xlink="http://www.w3.org/1999/xlink" width="826px" height="541px" viewBox="0 0 826 541" version="1.1">
<defs>
<filter id="alpha" filterUnits="objectBoundingBox" x="0%" y="0%" width="100%" height="100%">
  <feColorMatrix type="matrix" in="SourceGraphic" values="0 0 0 0 1 0 0 0 0 1 0 0 0 0 1 0 0 0 1 0"/>
</filter>
<mask id="mask0">
  <g filter="url(#alpha)">
<rect x="0" y="0" width="826" height="541" style="fill:rgb(0%,0%,0%);fill-opacity:0.2;stroke:none;"/>
  </g>
</mask>
<clipPath id="clip1">
  <rect x="0" y="0" width="826" height="541"/>
</clipPath>
<g id="surface5" clip-path="url(#clip1)">
<path style=" stroke:none;fill-rule:nonzero;fill:rgb(0%,0%,0%);fill-opacity:1;" d="M 436.246094 136.453125 L 436.246094 331.742188 C 436.246094 331.742188 526.175781 288.457031 525.378906 174.652344 Z M 436.246094 136.453125 "/>
</g>
</defs>
<g id="surface1">
<path style=" stroke:none;fill-rule:nonzero;fill:rgb(94.509804%,94.509804%,94.509804%);fill-opacity:1;" d="M 803.636719 539.804688 L 804.863281 539.78125 C 804.386719 526.160156 802.933594 512.59375 800.515625 499.183594 C 795.21875 470.46875 786.410156 451.613281 774.335938 443.136719 L 773.632812 444.136719 C 801.835938 463.941406 803.621094 539.046875 803.636719 539.804688 Z M 803.636719 539.804688 "/>
<path style=" stroke:none;fill-rule:nonzero;fill:rgb(94.509804%,94.509804%,94.509804%);fill-opacity:1;" d="M 788.324219 539.511719 L 789.550781 539.488281 C 789.523438 538.132812 788.757812 506.160156 776.171875 497.324219 L 775.46875 498.328125 C 787.546875 506.808594 788.320312 539.1875 788.324219 539.511719 Z M 788.324219 539.511719 "/>
<path style=" stroke:none;fill-rule:nonzero;fill:rgb(94.509804%,94.509804%,94.509804%);fill-opacity:1;" d="M 772.789062 438.125 C 772.789062 441.507812 770.046875 444.25 766.664062 444.25 C 763.28125 444.25 760.539062 441.507812 760.539062 438.125 C 760.539062 434.742188 763.28125 432 766.664062 432 C 770.046875 432 772.789062 434.742188 772.789062 438.125 Z M 772.789062 438.125 "/>
<path style=" stroke:none;fill-rule:nonzero;fill:rgb(94.509804%,94.509804%,94.509804%);fill-opacity:1;" d="M 775.820312 490.796875 C 775.820312 494.179688 773.078125 496.921875 769.695312 496.921875 C 766.3125 496.921875 763.570312 494.179688 763.570312 490.796875 C 763.570312 487.414062 766.3125 484.671875 769.695312 484.671875 C 773.078125 484.671875 775.820312 487.414062 775.820312 490.796875 Z M 775.820312 490.796875 "/>
<path style=" stroke:none;fill-rule:nonzero;fill:rgb(94.509804%,94.509804%,94.509804%);fill-opacity:1;" d="M 791.179688 447.921875 C 790.566406 452.644531 791.203125 457.449219 793.03125 461.847656 C 799.542969 454.570312 801.175781 444.144531 797.199219 435.222656 C 794.113281 438.855469 792.039062 443.234375 791.179688 447.921875 Z M 791.179688 447.921875 "/>
<path style=" stroke:none;fill-rule:nonzero;fill:rgb(94.509804%,94.509804%,94.509804%);fill-opacity:1;" d="M 771.160156 465.777344 C 775.707031 467.203125 780.546875 467.414062 785.199219 466.382812 C 779.164062 458.703125 769.183594 455.277344 759.707031 457.640625 C 762.746094 461.308594 766.695312 464.113281 771.160156 465.777344 Z M 771.160156 465.777344 "/>
<path style=" stroke:none;fill-rule:nonzero;fill:rgb(94.509804%,94.509804%,94.509804%);fill-opacity:1;" d="M 770.933594 512.421875 C 774.121094 513.421875 777.511719 513.570312 780.773438 512.847656 C 776.546875 507.464844 769.550781 505.0625 762.90625 506.71875 C 765.039062 509.289062 767.804688 511.257812 770.933594 512.421875 Z M 770.933594 512.421875 "/>
<path style=" stroke:none;fill-rule:nonzero;fill:rgb(94.509804%,94.509804%,94.509804%);fill-opacity:1;" d="M 282.027344 539.804688 L 280.246094 539.769531 C 280.9375 520.003906 283.042969 500.308594 286.558594 480.84375 C 294.246094 439.167969 307.03125 411.796875 324.554688 399.492188 L 325.578125 400.949219 C 284.640625 429.691406 282.046875 538.707031 282.027344 539.804688 Z M 282.027344 539.804688 "/>
<path style=" stroke:none;fill-rule:nonzero;fill:rgb(94.509804%,94.509804%,94.509804%);fill-opacity:1;" d="M 304.25 539.378906 L 302.472656 539.34375 C 302.511719 537.375 303.621094 490.972656 321.890625 478.148438 L 322.910156 479.601562 C 305.378906 491.910156 304.257812 538.90625 304.25 539.378906 Z M 304.25 539.378906 "/>
<path style=" stroke:none;fill-rule:nonzero;fill:rgb(94.509804%,94.509804%,94.509804%);fill-opacity:1;" d="M 344.582031 392.21875 C 344.582031 397.128906 340.601562 401.109375 335.691406 401.109375 C 330.78125 401.109375 326.800781 397.128906 326.800781 392.21875 C 326.800781 387.308594 330.78125 383.328125 335.691406 383.328125 C 340.601562 383.328125 344.582031 387.308594 344.582031 392.21875 Z M 344.582031 392.21875 "/>
<path style=" stroke:none;fill-rule:nonzero;fill:rgb(94.509804%,94.509804%,94.509804%);fill-opacity:1;" d="M 340.179688 468.671875 C 340.179688 473.578125 336.199219 477.558594 331.289062 477.558594 C 326.378906 477.558594 322.398438 473.578125 322.398438 468.671875 C 322.398438 463.761719 326.378906 459.78125 331.289062 459.78125 C 336.199219 459.78125 340.179688 463.761719 340.179688 468.671875 Z M 340.179688 468.671875 "/>
<path style=" stroke:none;fill-rule:nonzero;fill:rgb(94.509804%,94.509804%,94.509804%);fill-opacity:1;" d="M 300.105469 406.4375 C 300.996094 413.296875 300.070312 420.265625 297.421875 426.652344 C 287.96875 416.089844 285.601562 400.957031 291.371094 388.011719 C 295.847656 393.28125 298.859375 399.636719 300.105469 406.4375 Z M 300.105469 406.4375 "/>
<path style=" stroke:none;fill-rule:nonzero;fill:rgb(94.509804%,94.509804%,94.509804%);fill-opacity:1;" d="M 329.164062 432.355469 C 322.566406 434.425781 315.542969 434.730469 308.789062 433.234375 C 317.546875 422.085938 332.03125 417.117188 345.789062 420.542969 C 341.375 425.867188 335.644531 429.941406 329.164062 432.355469 Z M 329.164062 432.355469 "/>
<path style=" stroke:none;fill-rule:nonzero;fill:rgb(94.509804%,94.509804%,94.509804%);fill-opacity:1;" d="M 329.492188 500.058594 C 324.867188 501.511719 319.945312 501.722656 315.210938 500.675781 C 321.347656 492.863281 331.503906 489.378906 341.144531 491.78125 C 338.050781 495.511719 334.035156 498.367188 329.492188 500.058594 Z M 329.492188 500.058594 "/>
<path style=" stroke:none;fill-rule:nonzero;fill:rgb(100%,71.764706%,71.764706%);fill-opacity:1;" d="M 144.679688 161.234375 L 140.402344 135.066406 L 128.324219 132.046875 C 128.324219 132.046875 118.738281 129.09375 116.496094 148.402344 C 114.257812 167.710938 115.996094 203.757812 115.996094 203.757812 L 89.476562 287.726562 C 83.808594 290.421875 81.265625 297.105469 83.710938 302.890625 C 86.152344 308.671875 92.71875 311.503906 98.605469 309.3125 C 104.488281 307.121094 107.601562 300.6875 105.671875 294.714844 L 140.148438 215.835938 Z M 144.679688 161.234375 "/>
<path style=" stroke:none;fill-rule:nonzero;fill:rgb(100%,71.764706%,71.764706%);fill-opacity:1;" d="M 218.121094 140.640625 L 211.78125 114.894531 L 221.703125 107.375 C 221.703125 107.375 229.359375 100.898438 239 117.773438 C 248.644531 134.652344 261.199219 168.488281 261.199219 168.488281 L 318.558594 235.304688 C 324.832031 235.554688 329.792969 240.703125 329.816406 246.980469 C 329.835938 253.257812 324.910156 258.441406 318.640625 258.738281 C 312.367188 259.035156 306.976562 254.339844 306.40625 248.085938 L 243.726562 189.078125 Z M 218.121094 140.640625 "/>
<path style=" stroke:none;fill-rule:nonzero;fill:rgb(100%,71.764706%,71.764706%);fill-opacity:1;" d="M 267.6875 526.09375 L 282.070312 526.09375 L 288.914062 470.613281 L 267.6875 470.613281 Z M 267.6875 526.09375 "/>
<path style=" stroke:none;fill-rule:nonzero;fill:rgb(18.431373%,18.039216%,25.490196%);fill-opacity:1;" d="M 264.019531 521.398438 L 292.34375 521.394531 L 292.347656 521.394531 C 302.316406 521.394531 310.398438 529.476562 310.398438 539.445312 L 310.398438 540.035156 L 264.019531 540.035156 Z M 264.019531 521.398438 "/>
<path style=" stroke:none;fill-rule:nonzero;fill:rgb(100%,71.764706%,71.764706%);fill-opacity:1;" d="M 87.015625 526.09375 L 101.398438 526.09375 L 108.242188 470.613281 L 87.011719 470.613281 Z M 87.015625 526.09375 "/>
<path style=" stroke:none;fill-rule:nonzero;fill:rgb(18.431373%,18.039216%,25.490196%);fill-opacity:1;" d="M 83.347656 521.398438 L 111.671875 521.394531 L 111.675781 521.394531 C 121.644531 521.394531 129.726562 529.476562 129.726562 539.445312 L 129.726562 540.035156 L 83.347656 540.035156 Z M 83.347656 521.398438 "/>
<path style=" stroke:none;fill-rule:nonzero;fill:rgb(18.431373%,18.039216%,25.490196%);fill-opacity:1;" d="M 214.132812 52.429688 C 214.132812 73.914062 196.714844 91.332031 175.230469 91.332031 C 153.746094 91.332031 136.328125 73.914062 136.328125 52.429688 C 136.328125 30.945312 153.746094 13.53125 175.230469 13.53125 C 196.714844 13.53125 214.132812 30.945312 214.132812 52.429688 Z M 214.132812 52.429688 "/>
<path style=" stroke:none;fill-rule:nonzero;fill:rgb(18.431373%,18.039216%,25.490196%);fill-opacity:1;" d="M 147.710938 11.535156 C 142.996094 6.820312 134.078125 8.097656 127.792969 14.382812 C 121.503906 20.667969 120.230469 29.585938 124.945312 34.300781 C 129.660156 39.015625 138.578125 37.742188 144.863281 31.457031 C 151.152344 25.171875 152.425781 16.25 147.710938 11.535156 Z M 147.710938 11.535156 "/>
<path style=" stroke:none;fill-rule:nonzero;fill:rgb(18.431373%,18.039216%,25.490196%);fill-opacity:1;" d="M 205.714844 1.675781 C 197.539062 -1.816406 188.789062 0.324219 186.167969 6.457031 C 183.550781 12.585938 188.054688 20.390625 196.230469 23.882812 C 204.40625 27.375 213.15625 25.234375 215.777344 19.101562 C 218.394531 12.972656 213.890625 5.167969 205.714844 1.675781 Z M 205.714844 1.675781 "/>
<path style=" stroke:none;fill-rule:nonzero;fill:rgb(100%,71.764706%,71.764706%);fill-opacity:1;" d="M 192.300781 32.75 C 208.300781 41.496094 214.179688 61.554688 205.433594 77.554688 C 196.6875 93.554688 176.628906 99.433594 160.628906 90.6875 C 144.628906 81.941406 138.75 61.882812 147.496094 45.882812 C 156.242188 29.882812 176.300781 24.003906 192.300781 32.75 Z M 192.300781 32.75 "/>
<path style=" stroke:none;fill-rule:nonzero;fill:rgb(18.431373%,18.039216%,25.490196%);fill-opacity:1;" d="M 141.773438 40.953125 C 149.316406 46.152344 158.273438 48.917969 167.433594 48.882812 C 164.164062 51.148438 160.445312 52.679688 156.527344 53.367188 C 168.710938 55.980469 181.300781 56.054688 193.511719 53.578125 C 196.226562 53.140625 198.847656 52.242188 201.253906 50.917969 C 203.683594 49.5625 205.421875 47.238281 206.035156 44.527344 C 206.84375 39.890625 203.234375 35.679688 199.480469 32.839844 C 187.839844 24.175781 172.925781 21.195312 158.851562 24.722656 C 154.3125 25.894531 149.765625 27.878906 146.820312 31.523438 C 143.871094 35.167969 142.996094 40.785156 145.804688 44.539062 Z M 141.773438 40.953125 "/>
<path style=" stroke:none;fill-rule:nonzero;fill:rgb(18.431373%,18.039216%,25.490196%);fill-opacity:1;" d="M 159.917969 104.652344 L 127.238281 131.339844 L 155.792969 199.417969 L 156.335938 210.308594 C 156.335938 210.308594 126.695312 237.636719 108.359375 313.976562 C 90.019531 390.320312 52.976562 491.757812 52.976562 491.757812 L 127.078125 509.882812 L 178.597656 337.195312 L 244.277344 472.675781 L 253.617188 512.746094 L 310.898438 496.84375 L 288.792969 389.308594 L 234.574219 222.386719 L 239.023438 176.273438 C 239.023438 176.273438 248.945312 153.253906 231.710938 128.886719 L 226.304688 105.988281 L 198.316406 101.21875 Z M 159.917969 104.652344 "/>
<path style=" stroke:none;fill-rule:nonzero;fill:rgb(89.803922%,89.803922%,89.803922%);fill-opacity:1;" d="M 709.414062 346.929688 L 482.542969 346.929688 C 478.769531 346.925781 475.714844 343.867188 475.710938 340.097656 L 475.710938 263.5625 C 475.714844 259.789062 478.769531 256.730469 482.542969 256.726562 L 709.414062 256.726562 C 713.1875 256.730469 716.242188 259.789062 716.246094 263.5625 L 716.246094 340.097656 C 716.242188 343.867188 713.1875 346.925781 709.414062 346.929688 Z M 709.414062 346.929688 "/>
<path style=" stroke:none;fill-rule:nonzero;fill:rgb(100%,100%,100%);fill-opacity:1;" d="M 511.242188 277.226562 L 571.378906 277.226562 L 571.378906 284.0625 L 511.242188 284.0625 Z M 511.242188 277.226562 "/>
<path style=" stroke:none;fill-rule:nonzero;fill:rgb(41.568627%,41.176471%,86.27451%);fill-opacity:1;" d="M 654.746094 281.328125 C 654.746094 283.59375 652.910156 285.429688 650.648438 285.429688 C 648.382812 285.429688 646.546875 283.59375 646.546875 281.328125 C 646.546875 279.0625 648.382812 277.226562 650.648438 277.226562 C 652.910156 277.226562 654.746094 279.0625 654.746094 281.328125 Z M 654.746094 281.328125 "/>
<path style=" stroke:none;fill-rule:nonzero;fill:rgb(41.568627%,41.176471%,86.27451%);fill-opacity:1;" d="M 668.414062 281.328125 C 668.414062 283.59375 666.578125 285.429688 664.3125 285.429688 C 662.050781 285.429688 660.214844 283.59375 660.214844 281.328125 C 660.214844 279.0625 662.050781 277.226562 664.3125 277.226562 C 666.578125 277.226562 668.414062 279.0625 668.414062 281.328125 Z M 668.414062 281.328125 "/>
<path style=" stroke:none;fill-rule:nonzero;fill:rgb(41.568627%,41.176471%,86.27451%);fill-opacity:1;" d="M 682.082031 281.328125 C 682.082031 283.59375 680.246094 285.429688 677.980469 285.429688 C 675.714844 285.429688 673.878906 283.59375 673.878906 281.328125 C 673.878906 279.0625 675.714844 277.226562 677.980469 277.226562 C 680.246094 277.226562 682.082031 279.0625 682.082031 281.328125 Z M 682.082031 281.328125 "/>
<path style=" stroke:none;fill-rule:nonzero;fill:rgb(89.803922%,89.803922%,89.803922%);fill-opacity:1;" d="M 709.414062 443.964844 L 482.542969 443.964844 C 478.769531 443.960938 475.714844 440.902344 475.710938 437.132812 L 475.710938 360.597656 C 475.714844 356.824219 478.769531 353.765625 482.542969 353.761719 L 709.414062 353.761719 C 713.1875 353.765625 716.242188 356.824219 716.246094 360.597656 L 716.246094 437.132812 C 716.242188 440.902344 713.1875 443.960938 709.414062 443.964844 Z M 709.414062 443.964844 "/>
<path style=" stroke:none;fill-rule:nonzero;fill:rgb(100%,100%,100%);fill-opacity:1;" d="M 511.242188 374.261719 L 571.378906 374.261719 L 571.378906 381.097656 L 511.242188 381.097656 Z M 511.242188 374.261719 "/>
<path style=" stroke:none;fill-rule:nonzero;fill:rgb(41.568627%,41.176471%,86.27451%);fill-opacity:1;" d="M 654.746094 378.363281 C 654.746094 380.628906 652.910156 382.464844 650.648438 382.464844 C 648.382812 382.464844 646.546875 380.628906 646.546875 378.363281 C 646.546875 376.097656 648.382812 374.261719 650.648438 374.261719 C 652.910156 374.261719 654.746094 376.097656 654.746094 378.363281 Z M 654.746094 378.363281 "/>
<path style=" stroke:none;fill-rule:nonzero;fill:rgb(41.568627%,41.176471%,86.27451%);fill-opacity:1;" d="M 668.414062 378.363281 C 668.414062 380.628906 666.578125 382.464844 664.3125 382.464844 C 662.050781 382.464844 660.214844 380.628906 660.214844 378.363281 C 660.214844 376.097656 662.050781 374.261719 664.3125 374.261719 C 666.578125 374.261719 668.414062 376.097656 668.414062 378.363281 Z M 668.414062 378.363281 "/>
<path style=" stroke:none;fill-rule:nonzero;fill:rgb(41.568627%,41.176471%,86.27451%);fill-opacity:1;" d="M 682.082031 378.363281 C 682.082031 380.628906 680.246094 382.464844 677.980469 382.464844 C 675.714844 382.464844 673.878906 380.628906 673.878906 378.363281 C 673.878906 376.097656 675.714844 374.261719 677.980469 374.261719 C 680.246094 374.261719 682.082031 376.097656 682.082031 378.363281 Z M 682.082031 378.363281 "/>
<path style=" stroke:none;fill-rule:nonzero;fill:rgb(89.803922%,89.803922%,89.803922%);fill-opacity:1;" d="M 709.414062 541 L 482.542969 541 C 478.769531 540.996094 475.714844 537.9375 475.710938 534.167969 L 475.710938 457.632812 C 475.714844 453.859375 478.769531 450.800781 482.542969 450.796875 L 709.414062 450.796875 C 713.1875 450.800781 716.242188 453.859375 716.246094 457.632812 L 716.246094 534.167969 C 716.242188 537.9375 713.1875 540.996094 709.414062 541 Z M 709.414062 541 "/>
<path style=" stroke:none;fill-rule:nonzero;fill:rgb(100%,100%,100%);fill-opacity:1;" d="M 511.242188 471.296875 L 571.378906 471.296875 L 571.378906 478.132812 L 511.242188 478.132812 Z M 511.242188 471.296875 "/>
<path style=" stroke:none;fill-rule:nonzero;fill:rgb(41.568627%,41.176471%,86.27451%);fill-opacity:1;" d="M 654.746094 475.398438 C 654.746094 477.664062 652.910156 479.5 650.648438 479.5 C 648.382812 479.5 646.546875 477.664062 646.546875 475.398438 C 646.546875 473.132812 648.382812 471.296875 650.648438 471.296875 C 652.910156 471.296875 654.746094 473.132812 654.746094 475.398438 Z M 654.746094 475.398438 "/>
<path style=" stroke:none;fill-rule:nonzero;fill:rgb(41.568627%,41.176471%,86.27451%);fill-opacity:1;" d="M 668.414062 475.398438 C 668.414062 477.664062 666.578125 479.5 664.3125 479.5 C 662.050781 479.5 660.214844 477.664062 660.214844 475.398438 C 660.214844 473.132812 662.050781 471.296875 664.3125 471.296875 C 666.578125 471.296875 668.414062 473.132812 668.414062 475.398438 Z M 668.414062 475.398438 "/>
<path style=" stroke:none;fill-rule:nonzero;fill:rgb(41.568627%,41.176471%,86.27451%);fill-opacity:1;" d="M 682.082031 475.398438 C 682.082031 477.664062 680.246094 479.5 677.980469 479.5 C 675.714844 479.5 673.878906 477.664062 673.878906 475.398438 C 673.878906 473.132812 675.714844 471.296875 677.980469 471.296875 C 680.246094 471.296875 682.082031 473.132812 682.082031 475.398438 Z M 682.082031 475.398438 "/>
<path style=" stroke:none;fill-rule:nonzero;fill:rgb(24.705882%,23.921569%,33.72549%);fill-opacity:1;" d="M 437.167969 375.976562 C 432.847656 375.960938 428.546875 375.402344 424.363281 374.320312 L 423.539062 374.089844 L 422.773438 373.707031 C 395.128906 359.84375 371.800781 341.535156 353.449219 319.285156 C 338.253906 300.761719 326.410156 279.726562 318.445312 257.132812 C 308.921875 230.078125 304.339844 201.53125 304.917969 172.855469 C 304.929688 172.253906 304.9375 171.789062 304.9375 171.46875 C 304.9375 157.53125 312.675781 145.300781 324.648438 140.3125 C 333.816406 136.492188 417.023438 102.316406 423.035156 99.84375 C 434.359375 94.171875 446.4375 98.90625 448.371094 99.734375 C 452.707031 101.507812 529.628906 132.96875 546.253906 140.886719 C 563.382812 149.042969 567.957031 163.699219 567.957031 171.074219 C 567.957031 204.453125 562.175781 235.652344 550.773438 263.800781 C 541.5625 286.582031 528.511719 307.617188 512.1875 325.984375 C 480.6875 361.429688 449.183594 373.996094 448.878906 374.105469 C 445.113281 375.402344 441.152344 376.035156 437.167969 375.976562 Z M 429.761719 357.621094 C 432.492188 358.234375 438.78125 359.152344 442.878906 357.65625 C 448.085938 355.757812 474.457031 342.085938 499.101562 314.351562 C 533.148438 276.039062 550.421875 227.871094 550.449219 171.195312 C 550.386719 170.046875 549.570312 161.859375 538.726562 156.691406 C 522.425781 148.929688 442.46875 116.238281 441.664062 115.90625 L 441.445312 115.8125 C 439.769531 115.113281 434.4375 113.632812 430.761719 115.558594 L 430.023438 115.902344 C 429.132812 116.269531 340.804688 152.546875 331.382812 156.472656 C 324.792969 159.21875 322.445312 166.019531 322.445312 171.46875 C 322.445312 171.867188 322.4375 172.449219 322.421875 173.195312 C 321.667969 211.976562 330.644531 307.40625 429.761719 357.621094 Z M 429.761719 357.621094 "/>
<path style=" stroke:none;fill-rule:nonzero;fill:rgb(41.568627%,41.176471%,86.27451%);fill-opacity:1;" d="M 426.699219 107.804688 C 426.699219 107.804688 337.566406 144.414062 328.015625 148.390625 C 318.46875 152.371094 313.691406 161.921875 313.691406 171.46875 C 313.691406 181.019531 306.53125 305.632812 426.699219 365.882812 C 426.699219 365.882812 437.605469 368.898438 445.878906 365.882812 C 454.152344 362.863281 559.203125 311.933594 559.203125 171.074219 C 559.203125 171.074219 559.203125 156.746094 542.488281 148.789062 C 525.777344 140.832031 444.976562 107.804688 444.976562 107.804688 C 444.976562 107.804688 435.054688 103.429688 426.699219 107.804688 Z M 426.699219 107.804688 "/>
<use xlink:href="#surface5" mask="url(#mask0)"/>
<path style=" stroke:none;fill-rule:nonzero;fill:rgb(79.607843%,79.607843%,79.607843%);fill-opacity:1;" d="M 825 541 L 1 541 C 0.449219 541 0 540.550781 0 540 C 0 539.449219 0.449219 539 1 539 L 825 539 C 825.550781 539 826 539.449219 826 540 C 826 540.550781 825.550781 541 825 541 Z M 825 541 "/>
</g>
</svg>
